<svg width="44" height="44" viewBox="0 0 44 44" fill="none" xmlns="http://www.w3.org/2000/svg">
<path fill-rule="evenodd" clip-rule="evenodd" d="M20.1667 34.8307V40.3307H23.8333V34.8307H25.6667C27.6116 34.8307 29.4768 34.0581 30.8521 32.6828C32.2274 31.3076 33 29.4423 33 27.4974C33 25.5525 32.2274 23.6872 30.8521 22.3119C29.4768 20.9367 27.6116 20.1641 25.6667 20.1641H23.8333V12.8307H27.5V16.4974H31.1667V9.16406H23.8333V3.66406H20.1667V9.16406H18.3333C16.3884 9.16406 14.5231 9.93668 13.1479 11.3119C11.7726 12.6872 11 14.5525 11 16.4974C11 18.4423 11.7726 20.3076 13.1479 21.6828C14.5231 23.0581 16.3884 23.8307 18.3333 23.8307H20.1667V31.1641H16.5V27.4974H12.8333V34.8307H20.1667ZM23.8333 31.1641H25.6667C26.6391 31.1641 27.5718 30.7778 28.2594 30.0901C28.947 29.4025 29.3333 28.4699 29.3333 27.4974C29.3333 26.5249 28.947 25.5923 28.2594 24.9047C27.5718 24.217 26.6391 23.8307 25.6667 23.8307H23.8333V31.1641ZM20.1667 20.1641V12.8307H18.3333C17.3609 12.8307 16.4282 13.217 15.7406 13.9047C15.053 14.5923 14.6667 15.5249 14.6667 16.4974C14.6667 17.4699 15.053 18.4025 15.7406 19.0901C16.4282 19.7778 17.3609 20.1641 18.3333 20.1641H20.1667Z" fill="#8E63CF"/>
</svg>
