<svg width="44" height="44" viewBox="0 0 44 44" fill="none" xmlns="http://www.w3.org/2000/svg">
<path d="M3.84995 5.5H40.15C41.0643 5.5 41.8 6.23563 41.8 7.15C41.8 8.06438 41.0643 8.8 40.15 8.8H3.84995C2.93558 8.8 2.19995 8.06438 2.19995 7.15C2.19995 6.23563 2.93558 5.5 3.84995 5.5ZM3.84995 36.3H40.15C41.0643 36.3 41.8 37.0356 41.8 37.95C41.8 38.8644 41.0643 39.6 40.15 39.6H3.84995C2.93558 39.6 2.19995 38.8644 2.19995 37.95C2.19995 37.0356 2.93558 36.3 3.84995 36.3ZM29.15 17.6C29.15 15.4756 30.8756 13.75 33 13.75C35.1243 13.75 36.85 15.4756 36.85 17.6C36.85 19.7244 35.1243 21.45 33 21.45C30.8756 21.45 29.15 19.7244 29.15 17.6ZM31.02 24.5025C31.6456 24.3031 32.3125 24.2 33 24.2C36.6437 24.2 39.6 27.1562 39.6 30.8V31.5356C39.6 32.3469 38.94 33 38.1356 33H32.7181C32.9037 32.4844 33 31.9275 33 31.35V30.8C33 28.4556 32.2712 26.2831 31.02 24.5025ZM12.98 24.5025C11.7287 26.2831 11 28.4556 11 30.8V31.35C11 31.9275 11.0962 32.4844 11.2818 33H5.86433C5.05995 33 4.39995 32.34 4.39995 31.5356V30.8C4.39995 27.1562 7.3562 24.2 11 24.2C11.6875 24.2 12.3543 24.3031 12.98 24.5025ZM7.14995 17.6C7.14995 15.4756 8.87558 13.75 11 13.75C13.1243 13.75 14.85 15.4756 14.85 17.6C14.85 19.7244 13.1243 21.45 11 21.45C8.87558 21.45 7.14995 19.7244 7.14995 17.6ZM17.6 16.5C17.6 14.0731 19.5731 12.1 22 12.1C24.4268 12.1 26.4 14.0731 26.4 16.5C26.4 18.9269 24.4268 20.9 22 20.9C19.5731 20.9 17.6 18.9269 17.6 16.5ZM14.3 30.8C14.3 26.5444 17.7443 23.1 22 23.1C26.2556 23.1 29.7 26.5444 29.7 30.8V31.35C29.7 32.2644 28.9643 33 28.05 33H15.95C15.0356 33 14.3 32.2644 14.3 31.35V30.8Z" fill="#3178EC"/>
</svg>
