<svg width="44" height="44" viewBox="0 0 44 44" fill="none" xmlns="http://www.w3.org/2000/svg">
<path d="M30.7083 37.5833L38.0417 33L30.7083 28.4167V37.5833ZM11 16.5H33V12.8333H11V16.5ZM33 42.1667C30.4639 42.1667 28.3024 41.2726 26.5155 39.4845C24.7286 37.6964 23.8346 35.5349 23.8333 33C23.8321 30.4651 24.7262 28.3036 26.5155 26.5155C28.3048 24.7274 30.4663 23.8333 33 23.8333C35.5337 23.8333 37.6958 24.7274 39.4863 26.5155C41.2769 28.3036 42.1703 30.4651 42.1667 33C42.163 35.5349 41.2689 37.697 39.4845 39.4863C37.7001 41.2757 35.5386 42.1691 33 42.1667ZM5.5 40.3333V9.16667C5.5 8.15833 5.85933 7.29544 6.578 6.578C7.29667 5.86056 8.15956 5.50122 9.16667 5.5H34.8333C35.8417 5.5 36.7052 5.85933 37.4238 6.578C38.1425 7.29667 38.5012 8.15956 38.5 9.16667V21.4042C37.6444 20.9764 36.7504 20.6629 35.8178 20.4637C34.8853 20.2644 33.946 20.1654 33 20.1667H11V23.8333H24.0167C23.4972 24.3528 23.0163 24.9181 22.5738 25.5292C22.1314 26.1403 21.7415 26.7972 21.4042 27.5H11V31.1667H20.3042C20.2431 31.4722 20.2052 31.7704 20.1905 32.0613C20.1758 32.3522 20.1679 32.6651 20.1667 33C20.1667 34.2833 20.3427 35.5135 20.6947 36.6905C21.0467 37.8675 21.5734 38.9901 22.275 40.0583L22 40.3333L19.25 37.5833L16.5 40.3333L13.75 37.5833L11 40.3333L8.25 37.5833L5.5 40.3333Z" fill="#E4624A"/>
</svg>
