<svg width="44" height="44" viewBox="0 0 44 44" fill="none" xmlns="http://www.w3.org/2000/svg">
<path fill-rule="evenodd" clip-rule="evenodd" d="M8.05715 4.11272C6.78195 4.38967 6.15776 5.09145 5.30526 7.20669C4.5817 9.00196 4.26069 10.1429 4.14909 11.3163C4.02943 12.5748 4.76043 13.9982 5.86203 14.6516L6.21745 14.8624L6.21886 20.6679L6.22026 26.4734L5.84194 26.5125C5.63379 26.534 5.3731 26.5987 5.26256 26.6561C4.90257 26.8434 4.52088 27.2905 4.26188 27.8283L4.00808 28.3554V29.3744C4.00808 30.3252 4.0203 30.4195 4.19074 30.7832C4.53732 31.5225 5.02217 31.9007 5.81069 32.0465C6.05775 32.0923 11.7802 32.1103 22.2346 32.0984L38.2794 32.08L38.6508 31.9122C38.866 31.8148 39.1381 31.6124 39.298 31.4306C39.5519 31.1419 39.8595 30.4953 39.8595 30.2502C39.8595 30.1937 39.8911 30.1475 39.9298 30.1475C39.9727 30.1475 40 29.8181 40 29.3C40 28.7529 39.9751 28.4679 39.9298 28.496C39.8911 28.5199 39.8595 28.4813 39.8595 28.4103C39.8595 28.3393 39.7535 28.0607 39.6239 27.7912C39.2302 26.9724 38.5995 26.4946 37.9107 26.4935L37.6825 26.4931L37.6852 20.6778L37.688 14.8624L38.0378 14.6919C38.7285 14.3554 39.3625 13.4784 39.6122 12.5141C39.7425 12.0109 39.7612 10.9153 39.6496 10.3296C39.5281 9.69242 39.3091 8.97237 38.9107 7.89982C37.9807 5.39624 37.1513 4.40844 35.7253 4.10597C35.0392 3.96043 8.72874 3.96682 8.05715 4.11272ZM10.553 14.3863C10.4833 14.4034 10.1326 14.5702 9.77367 14.757C9.41473 14.9437 8.97405 15.1186 8.79433 15.1456L8.46756 15.1946V20.8439V26.4931H12.0353H15.6031L15.7266 26.1493C15.9405 25.5541 16.548 24.6555 17.1376 24.0623C17.7914 23.4043 18.3592 23.0037 19.189 22.6145L19.7792 22.3377L19.4546 21.9765C18.2635 20.6509 18.2995 18.7229 19.5395 17.422C20.8292 16.0689 22.909 16.0298 24.2744 17.333C25.5899 18.5887 25.6671 20.6197 24.4509 21.9734L24.1291 22.3316L24.8486 22.6841C25.7075 23.105 26.3329 23.5658 26.9313 24.219C27.4283 24.7615 27.9908 25.6338 28.1761 26.1493L28.2996 26.4931H31.8674H35.4352V20.8439V15.1946L35.1231 15.1478C34.9515 15.122 34.5011 14.9415 34.1224 14.7465C33.2586 14.302 33.1005 14.2957 32.4045 14.6779C31.6304 15.1031 31.2402 15.205 30.3787 15.2071C29.5321 15.209 29.1629 15.1114 28.3456 14.6694C27.6674 14.3027 27.4674 14.3039 26.7863 14.6779C26.0121 15.1031 25.622 15.205 24.7605 15.2071C23.9138 15.209 23.5446 15.1114 22.7273 14.6694C22.0492 14.3027 21.8492 14.3039 21.168 14.6779C20.3938 15.1031 20.0037 15.205 19.1422 15.2071C18.2956 15.209 17.9264 15.1114 17.1091 14.6694C16.4309 14.3027 16.2309 14.3039 15.5498 14.6779C14.7756 15.1031 14.3855 15.205 13.524 15.2071C12.6872 15.209 12.3119 15.1119 11.5225 14.6892C11.0032 14.4111 10.7607 14.3354 10.553 14.3863ZM4 29.3744C4 29.8576 4.01124 30.0553 4.02493 29.8136C4.0387 29.5721 4.0387 29.1768 4.02493 28.9352C4.01124 28.6937 4 28.8913 4 29.3744ZM6.22026 35.6845C6.22026 36.6435 6.24969 37.1181 6.32778 37.4181C6.64332 38.6302 7.57932 39.5638 8.79714 39.8812C9.40448 40.0396 34.4983 40.0396 35.1056 39.8812C36.3234 39.5638 37.2594 38.6302 37.575 37.4181C37.653 37.1181 37.6825 36.6435 37.6825 35.6845V34.364H21.9514H6.22026V35.6845Z" fill="#00B14E"/>
</svg>
