<svg width="44" height="44" viewBox="0 0 44 44" fill="none" xmlns="http://www.w3.org/2000/svg">
<path d="M22 31.6714L14.3917 36.2547C14.0556 36.4686 13.7042 36.5602 13.3375 36.5297C12.9708 36.4991 12.65 36.3769 12.375 36.163C12.1 35.9491 11.8861 35.6821 11.7333 35.3619C11.5806 35.0416 11.55 34.6823 11.6417 34.2839L13.6583 25.6214L6.92084 19.8005C6.61529 19.5255 6.42462 19.212 6.34884 18.86C6.27306 18.508 6.29567 18.1646 6.41667 17.8297C6.53767 17.4948 6.72101 17.2198 6.96667 17.0047C7.21234 16.7896 7.54845 16.6521 7.97501 16.5922L16.8667 15.813L20.3042 7.65469C20.457 7.28802 20.6941 7.01302 21.0155 6.82969C21.337 6.64635 21.6651 6.55469 22 6.55469C22.3349 6.55469 22.6631 6.64635 22.9845 6.82969C23.306 7.01302 23.5431 7.28802 23.6958 7.65469L27.1333 15.813L36.025 16.5922C36.4528 16.6533 36.7889 16.7908 37.0333 17.0047C37.2778 17.2186 37.4611 17.4936 37.5833 17.8297C37.7056 18.1658 37.7288 18.5099 37.653 18.8619C37.5772 19.2139 37.386 19.5267 37.0792 19.8005L30.3417 25.6214L32.3583 34.2839C32.45 34.6811 32.4195 35.0404 32.2667 35.3619C32.1139 35.6833 31.9 35.9504 31.625 36.163C31.35 36.3757 31.0292 36.4979 30.6625 36.5297C30.2958 36.5615 29.9445 36.4698 29.6083 36.2547L22 31.6714Z" fill="#3178EC"/>
</svg>
