<svg width="44" height="44" viewBox="0 0 44 44" fill="none" xmlns="http://www.w3.org/2000/svg">
<path fill-rule="evenodd" clip-rule="evenodd" d="M22 10.9963C21.1573 10.9963 20.3229 11.1623 19.5444 11.4848C18.7659 11.8072 18.0585 12.2799 17.4627 12.8757C16.8668 13.4716 16.3942 14.1789 16.0717 14.9574C15.7493 15.736 15.5833 16.5704 15.5833 17.413C15.5833 18.2556 15.7493 19.09 16.0717 19.8686C16.3942 20.6471 16.8668 21.3544 17.4627 21.9503C18.0585 22.5461 18.7659 23.0188 19.5444 23.3412C20.3229 23.6637 21.1573 23.8297 22 23.8297C23.7018 23.8297 25.3339 23.1536 26.5372 21.9503C27.7406 20.7469 28.4166 19.1148 28.4166 17.413C28.4166 15.7112 27.7406 14.0791 26.5372 12.8757C25.3339 11.6724 23.7018 10.9963 22 10.9963ZM19.25 25.663C17.305 25.663 15.4398 26.4356 14.0645 27.8109C12.6892 29.1861 11.9166 31.0514 11.9166 32.9963C11.9166 33.9688 12.3029 34.9014 12.9906 35.5891C13.6782 36.2767 14.6108 36.663 15.5833 36.663H28.4166C29.3891 36.663 30.3217 36.2767 31.0093 35.5891C31.697 34.9014 32.0833 33.9688 32.0833 32.9963C32.0833 31.0514 31.3107 29.1861 29.9354 27.8109C28.5601 26.4356 26.6949 25.663 24.75 25.663H19.25ZM31.7533 19.987C32.3361 17.7675 32.1458 15.4156 31.2138 13.3186C30.2818 11.2216 28.6635 9.50449 26.6255 8.44983C27.4021 7.91911 28.2859 7.56564 29.2143 7.41443C30.1427 7.26323 31.0931 7.318 31.998 7.57486C32.9029 7.83172 33.7402 8.28439 34.4507 8.90082C35.1613 9.51724 35.7276 10.2823 36.1095 11.1419C36.4915 12.0015 36.6799 12.9346 36.6612 13.8751C36.6425 14.8155 36.4173 15.7404 36.0015 16.5842C35.5856 17.4279 34.9894 18.1699 34.255 18.7576C33.5205 19.3454 32.6658 19.7644 31.7515 19.9852L31.7533 19.987ZM35.75 32.9963H36.6666C37.6391 32.9963 38.5717 32.61 39.2593 31.9224C39.947 31.2348 40.3333 30.3021 40.3333 29.3297C40.3333 27.3847 39.5607 25.5195 38.1854 24.1442C36.8101 22.7689 34.9449 21.9963 33 21.9963H30.9833C30.7339 22.4847 30.4451 22.9519 30.1198 23.3933C31.8276 24.3486 33.2496 25.742 34.2393 27.4301C35.229 29.1181 35.7504 31.0396 35.75 32.9963ZM7.33329 13.7463C7.33301 12.5781 7.65166 11.432 8.25487 10.4315C8.85808 9.43111 9.72297 8.61433 10.7563 8.06929C11.7895 7.52426 12.952 7.27165 14.1183 7.33871C15.2846 7.40577 16.4105 7.78995 17.3745 8.44983C15.3344 9.50221 13.7145 11.2192 12.7825 13.3169C11.8504 15.4147 11.662 17.7677 12.2485 19.987C10.8474 19.6498 9.60067 18.8508 8.70904 17.7187C7.81741 16.5866 7.33281 15.1874 7.33329 13.7463ZM13.0166 21.9963H11C9.05504 21.9963 7.18978 22.7689 5.81451 24.1442C4.43924 25.5195 3.66663 27.3847 3.66663 29.3297C3.66663 30.3021 4.05293 31.2348 4.74057 31.9224C5.4282 32.61 6.36083 32.9963 7.33329 32.9963H8.24996C8.24947 31.0396 8.77096 29.1181 9.76063 27.4301C10.7503 25.742 12.1724 24.3486 13.8801 23.3933C13.5548 22.9519 13.266 22.4847 13.0166 21.9963Z" fill="#E4624A"/>
</svg>
