<svg width="44" height="44" viewBox="0 0 44 44" fill="none" xmlns="http://www.w3.org/2000/svg">
<path d="M7.33332 14.6641H3.66666V36.6641C3.66666 37.6365 4.05296 38.5692 4.7406 39.2568C5.42823 39.9444 6.36086 40.3307 7.33332 40.3307H29.3333V36.6641H7.33332V14.6641Z" fill="#00B14E"/>
<path d="M36.6667 3.66406H14.6667C13.6942 3.66406 12.7616 4.05037 12.0739 4.738C11.3863 5.42564 11 6.35827 11 7.33073V29.3307C11 30.3032 11.3863 31.2358 12.0739 31.9235C12.7616 32.6111 13.6942 32.9974 14.6667 32.9974H36.6667C37.6391 32.9974 38.5718 32.6111 39.2594 31.9235C39.947 31.2358 40.3333 30.3032 40.3333 29.3307V7.33073C40.3333 6.35827 39.947 5.42564 39.2594 4.738C38.5718 4.05037 37.6391 3.66406 36.6667 3.66406ZM20.1667 25.6641V10.9974L33 18.3307L20.1667 25.6641Z" fill="#00B14E"/>
</svg>
