<svg width="20" height="20" viewBox="0 0 20 20" fill="none" xmlns="http://www.w3.org/2000/svg">
<path d="M10 6.66406C14.1421 6.66406 17.5 5.54477 17.5 4.16406C17.5 2.78335 14.1421 1.66406 10 1.66406C5.85786 1.66406 2.5 2.78335 2.5 4.16406C2.5 5.54477 5.85786 6.66406 10 6.66406Z" stroke="#155DFC" stroke-width="1.66667" stroke-linecap="round" stroke-linejoin="round"/>
<path d="M2.5 4.16406V15.8307C2.5 16.4938 3.29018 17.1297 4.6967 17.5985C6.10322 18.0673 8.01088 18.3307 10 18.3307C11.9891 18.3307 13.8968 18.0673 15.3033 17.5985C16.7098 17.1297 17.5 16.4938 17.5 15.8307V4.16406" stroke="#155DFC" stroke-width="1.66667" stroke-linecap="round" stroke-linejoin="round"/>
<path d="M2.5 10C2.5 10.663 3.29018 11.2989 4.6967 11.7678C6.10322 12.2366 8.01088 12.5 10 12.5C11.9891 12.5 13.8968 12.2366 15.3033 11.7678C16.7098 11.2989 17.5 10.663 17.5 10" stroke="#155DFC" stroke-width="1.66667" stroke-linecap="round" stroke-linejoin="round"/>
</svg>
