<svg width="53" height="52" viewBox="0 0 53 52" fill="none" xmlns="http://www.w3.org/2000/svg">
<path d="M31.667 25.1667V21C31.667 20.558 31.4836 20.1341 31.1572 19.8215C30.8307 19.509 30.388 19.3334 29.9263 19.3334C29.4646 19.3334 29.0219 19.509 28.6954 19.8215C28.3689 20.1341 28.1855 20.558 28.1855 21" stroke="white" stroke-width="1.66667" stroke-linecap="round" stroke-linejoin="round"/>
<path d="M28.1846 24.3333V19.3333C28.1846 18.8913 28.0012 18.4673 27.6748 18.1548C27.3483 17.8422 26.9055 17.6666 26.4439 17.6666C25.9822 17.6666 25.5394 17.8422 25.213 18.1548C24.8865 18.4673 24.7031 18.8913 24.7031 19.3333V21" stroke="white" stroke-width="1.66667" stroke-linecap="round" stroke-linejoin="round"/>
<path d="M24.7041 24.75V21C24.7041 20.558 24.5207 20.1341 24.1943 19.8215C23.8678 19.509 23.4251 19.3334 22.9634 19.3334C22.5017 19.3334 22.059 19.509 21.7325 19.8215C21.4061 20.1341 21.2227 20.558 21.2227 21V27.6667" stroke="white" stroke-width="1.66667" stroke-linecap="round" stroke-linejoin="round"/>
<path d="M31.6663 22.6667C31.6663 22.2246 31.8496 21.8007 32.1761 21.4882C32.5026 21.1756 32.9453 21 33.407 21C33.8687 21 34.3114 21.1756 34.6379 21.4882C34.9643 21.8007 35.1477 22.2246 35.1477 22.6667V27.6667C35.1477 29.4348 34.4141 31.1305 33.1083 32.3807C31.8025 33.631 30.0315 34.3333 28.1848 34.3333H26.444C24.007 34.3333 22.5274 33.6167 21.2305 32.3833L18.0972 29.3833C17.7977 29.0658 17.6373 28.6501 17.649 28.2225C17.6608 27.7948 17.8439 27.3878 18.1605 27.0858C18.477 26.7838 18.9027 26.6099 19.3494 26.6002C19.7962 26.5904 20.2297 26.7455 20.5603 27.0333L22.0922 28.5" stroke="white" stroke-width="1.66667" stroke-linecap="round" stroke-linejoin="round"/>
</svg>
