<svg width="53" height="52" viewBox="0 0 53 52" fill="none" xmlns="http://www.w3.org/2000/svg">
<rect width="52.8889" height="52" rx="26" fill="#E7000B"/>
<g clip-path="url(#clip0_1_36480)">
<path d="M24.8999 27.0916C25.7456 27.938 26.7014 28.6668 27.7415 29.2583L28.7999 28.1999C29.0264 27.9759 29.3125 27.8215 29.6241 27.755C29.9358 27.6885 30.2599 27.7128 30.5582 27.8249C31.3143 28.107 32.0998 28.3027 32.8999 28.4083C33.3003 28.4649 33.6665 28.6651 33.9303 28.9718C34.194 29.2784 34.3372 29.6705 34.3332 30.0749V32.5749C34.3341 32.807 34.2866 33.0367 34.1936 33.2494C34.1006 33.462 33.9643 33.6529 33.7933 33.8098C33.6222 33.9667 33.4203 34.0862 33.2005 34.1605C32.9806 34.2349 32.7477 34.2625 32.5165 34.2416C29.9522 33.963 27.489 33.0867 25.3249 31.6833C24.3209 31.0458 23.3903 30.2996 22.5499 29.4583M20.3249 26.6749C18.9214 24.5108 18.0452 22.0476 17.7665 19.4833C17.7457 19.2528 17.7731 19.0206 17.8469 18.8013C17.9208 18.582 18.0395 18.3805 18.1955 18.2096C18.3515 18.0387 18.5414 17.9022 18.753 17.8087C18.9647 17.7152 19.1935 17.6668 19.4249 17.6666H21.9249C22.3293 17.6626 22.7214 17.8058 23.028 18.0695C23.3346 18.3332 23.5349 18.6995 23.5915 19.0999C23.697 19.9 23.8927 20.6855 24.1749 21.4416C24.287 21.7399 24.3112 22.064 24.2448 22.3757C24.1783 22.6873 24.0239 22.9733 23.7999 23.1999L22.7415 24.2583" stroke="white" stroke-width="1.66667" stroke-linecap="round" stroke-linejoin="round"/>
<path d="M34.3327 17.6666L17.666 34.3333" stroke="white" stroke-width="1.66667" stroke-linecap="round" stroke-linejoin="round"/>
</g>
<defs>
<clipPath id="clip0_1_36480">
<rect width="20" height="20" fill="white" transform="translate(16 16)"/>
</clipPath>
</defs>
</svg>
