<svg width="44" height="44" viewBox="0 0 44 44" fill="none" xmlns="http://www.w3.org/2000/svg">
<path d="M25.3327 29.5V27.8333C25.3327 26.9493 24.9815 26.1014 24.3564 25.4763C23.7313 24.8512 22.8834 24.5 21.9993 24.5H16.9993C16.1153 24.5 15.2674 24.8512 14.6423 25.4763C14.0172 26.1014 13.666 26.9493 13.666 27.8333V29.5" stroke="white" stroke-width="1.66667" stroke-linecap="round" stroke-linejoin="round"/>
<path d="M19.4993 21.1667C21.3403 21.1667 22.8327 19.6743 22.8327 17.8333C22.8327 15.9924 21.3403 14.5 19.4993 14.5C17.6584 14.5 16.166 15.9924 16.166 17.8333C16.166 19.6743 17.6584 21.1667 19.4993 21.1667Z" stroke="white" stroke-width="1.66667" stroke-linecap="round" stroke-linejoin="round"/>
<path d="M30.334 29.5001V27.8334C30.3334 27.0948 30.0876 26.3774 29.6351 25.7937C29.1826 25.2099 28.5491 24.793 27.834 24.6084" stroke="white" stroke-width="1.66667" stroke-linecap="round" stroke-linejoin="round"/>
<path d="M25.334 14.6084C26.051 14.792 26.6865 15.209 27.1403 15.7937C27.5942 16.3783 27.8405 17.0974 27.8405 17.8376C27.8405 18.5777 27.5942 19.2968 27.1403 19.8815C26.6865 20.4661 26.051 20.8831 25.334 21.0667" stroke="white" stroke-width="1.66667" stroke-linecap="round" stroke-linejoin="round"/>
<rect x="24" y="4" width="16" height="16" rx="8" fill="#155DFC"/>
<path d="M33.1523 15.5H31.7803V10.3291C31.279 10.7979 30.6882 11.1445 30.0078 11.3691V10.124C30.3659 10.0068 30.7549 9.78548 31.1748 9.45996C31.5947 9.13118 31.8828 8.7487 32.0391 8.3125H33.1523V15.5Z" fill="white"/>
</svg>
