<svg width="44" height="44" viewBox="0 0 44 44" fill="none" xmlns="http://www.w3.org/2000/svg">
<path d="M22.1824 13.6666H21.8157C21.3737 13.6666 20.9497 13.8422 20.6372 14.1548C20.3246 14.4673 20.149 14.8913 20.149 15.3333V15.4833C20.1487 15.7756 20.0716 16.0626 19.9253 16.3157C19.779 16.5687 19.5688 16.7788 19.3157 16.925L18.9574 17.1333C18.704 17.2796 18.4166 17.3566 18.124 17.3566C17.8315 17.3566 17.5441 17.2796 17.2907 17.1333L17.1657 17.0666C16.7832 16.846 16.3289 16.7862 15.9024 16.9002C15.4758 17.0143 15.112 17.2929 14.8907 17.675L14.7074 17.9916C14.4867 18.3741 14.4269 18.8284 14.5409 19.255C14.655 19.6815 14.9336 20.0453 15.3157 20.2666L15.4407 20.35C15.6926 20.4954 15.902 20.7042 16.0482 20.9557C16.1944 21.2071 16.2723 21.4924 16.274 21.7833V22.2083C16.2752 22.502 16.1987 22.7908 16.0524 23.0454C15.9061 23.3 15.695 23.5115 15.4407 23.6583L15.3157 23.7333C14.9336 23.9546 14.655 24.3184 14.5409 24.745C14.4269 25.1715 14.4867 25.6258 14.7074 26.0083L14.8907 26.325C15.112 26.707 15.4758 26.9856 15.9024 27.0997C16.3289 27.2138 16.7832 27.1539 17.1657 26.9333L17.2907 26.8666C17.5441 26.7203 17.8315 26.6433 18.124 26.6433C18.4166 26.6433 18.704 26.7203 18.9574 26.8666L19.3157 27.075C19.5688 27.2211 19.779 27.4312 19.9253 27.6843C20.0716 27.9373 20.1487 28.2244 20.149 28.5166V28.6666C20.149 29.1087 20.3246 29.5326 20.6372 29.8451C20.9497 30.1577 21.3737 30.3333 21.8157 30.3333H22.1824C22.6244 30.3333 23.0483 30.1577 23.3609 29.8451C23.6734 29.5326 23.849 29.1087 23.849 28.6666V28.5166C23.8493 28.2244 23.9265 27.9373 24.0727 27.6843C24.219 27.4312 24.4292 27.2211 24.6824 27.075L25.0407 26.8666C25.2941 26.7203 25.5815 26.6433 25.874 26.6433C26.1666 26.6433 26.454 26.7203 26.7074 26.8666L26.8324 26.9333C27.2148 27.1539 27.6692 27.2138 28.0957 27.0997C28.5222 26.9856 28.8861 26.707 29.1074 26.325L29.2907 26C29.5113 25.6175 29.5712 25.1632 29.4571 24.7366C29.343 24.3101 29.0644 23.9463 28.6824 23.725L28.5574 23.6583C28.303 23.5115 28.092 23.3 27.9457 23.0454C27.7993 22.7908 27.7229 22.502 27.724 22.2083V21.7916C27.7229 21.4979 27.7993 21.2092 27.9457 20.9545C28.092 20.6999 28.303 20.4885 28.5574 20.3416L28.6824 20.2666C29.0644 20.0453 29.343 19.6815 29.4571 19.255C29.5712 18.8284 29.5113 18.3741 29.2907 17.9916L29.1074 17.675C28.8861 17.2929 28.5222 17.0143 28.0957 16.9002C27.6692 16.7862 27.2148 16.846 26.8324 17.0666L26.7074 17.1333C26.454 17.2796 26.1666 17.3566 25.874 17.3566C25.5815 17.3566 25.2941 17.2796 25.0407 17.1333L24.6824 16.925C24.4292 16.7788 24.219 16.5687 24.0727 16.3157C23.9265 16.0626 23.8493 15.7756 23.849 15.4833V15.3333C23.849 14.8913 23.6734 14.4673 23.3609 14.1548C23.0483 13.8422 22.6244 13.6666 22.1824 13.6666Z" stroke="white" stroke-width="1.66667" stroke-linecap="round" stroke-linejoin="round"/>
<path d="M22 24.5C23.3807 24.5 24.5 23.3807 24.5 22C24.5 20.6193 23.3807 19.5 22 19.5C20.6193 19.5 19.5 20.6193 19.5 22C19.5 23.3807 20.6193 24.5 22 24.5Z" stroke="white" stroke-width="1.66667" stroke-linecap="round" stroke-linejoin="round"/>
</svg>
