<svg width="53" height="52" viewBox="0 0 53 52" fill="none" xmlns="http://www.w3.org/2000/svg">
<rect width="52.8889" height="52" rx="26" fill="#E7000B"/>
<path d="M25.2773 21H28.1844C28.6461 21 29.0888 21.1756 29.4153 21.4882C29.7417 21.8007 29.9251 22.2246 29.9251 22.6667V24.75L34.4928 22.1983C34.559 22.1614 34.6341 22.1418 34.7107 22.1415C34.7873 22.1413 34.8625 22.1604 34.9289 22.1969C34.9953 22.2334 35.0505 22.2861 35.0888 22.3495C35.1272 22.413 35.1474 22.485 35.1473 22.5583V29.3883" stroke="white" stroke-width="1.66667" stroke-linecap="round" stroke-linejoin="round"/>
<path d="M29.9254 29.3333C29.9254 29.7754 29.742 30.1993 29.4156 30.5118C29.0891 30.8244 28.6464 31 28.1847 31H19.481C19.0193 31 18.5765 30.8244 18.2501 30.5118C17.9236 30.1993 17.7402 29.7754 17.7402 29.3333V22.6667C17.7402 22.2246 17.9236 21.8007 18.2501 21.4882C18.5765 21.1756 19.0193 21 19.481 21H21.2217" stroke="white" stroke-width="1.66667" stroke-linecap="round" stroke-linejoin="round"/>
<path d="M17.7402 17.6666L35.1476 34.3333" stroke="white" stroke-width="1.66667" stroke-linecap="round" stroke-linejoin="round"/>
</svg>
