<svg width="24" height="24" viewBox="0 0 24 24" fill="none" xmlns="http://www.w3.org/2000/svg">
<path d="M9 10.4983C9 10.2994 9.07902 10.1086 9.21967 9.96793C9.36032 9.82728 9.55109 9.74826 9.75 9.74826H14.25C14.4489 9.74826 14.6397 9.82728 14.7803 9.96793C14.921 10.1086 15 10.2994 15 10.4983C15 10.6972 14.921 10.8879 14.7803 11.0286C14.6397 11.1692 14.4489 11.2483 14.25 11.2483H9.75C9.55109 11.2483 9.36032 11.1692 9.21967 11.0286C9.07902 10.8879 9 10.6972 9 10.4983ZM9.75 12.7483C9.55109 12.7483 9.36032 12.8273 9.21967 12.9679C9.07902 13.1086 9 13.2994 9 13.4983C9 13.6972 9.07902 13.8879 9.21967 14.0286C9.36032 14.1692 9.55109 14.2483 9.75 14.2483H12.75C12.9489 14.2483 13.1397 14.1692 13.2803 14.0286C13.421 13.8879 13.5 13.6972 13.5 13.4983C13.5 13.2994 13.421 13.1086 13.2803 12.9679C13.1397 12.8273 12.9489 12.7483 12.75 12.7483H9.75ZM3 11.9983C3.00038 10.0168 3.65464 8.09091 4.86127 6.51926C6.06791 4.9476 7.75947 3.81807 9.67356 3.30589C11.5876 2.7937 13.6173 2.92749 15.4476 3.6865C17.2778 4.44551 18.8065 5.78731 19.7964 7.50376C20.7863 9.2202 21.1821 11.2153 20.9224 13.1797C20.6626 15.144 19.7619 16.9677 18.36 18.3679C16.958 19.7681 15.1332 20.6666 13.1685 20.9238C11.2038 21.1811 9.2092 20.7828 7.494 19.7908L3.987 20.9608C3.85743 21.004 3.71851 21.0111 3.58523 20.9812C3.45195 20.9512 3.32937 20.8855 3.23072 20.791C3.13207 20.6965 3.06109 20.5769 3.02546 20.445C2.98982 20.3132 2.99087 20.1741 3.0285 20.0428L4.0965 16.3063C3.37653 14.9845 2.99953 13.5034 3 11.9983ZM12 4.49826C10.6758 4.49818 9.37513 4.84871 8.23028 5.51422C7.08543 6.17974 6.1372 7.1365 5.48198 8.28726C4.82675 9.43803 4.48788 10.7418 4.49983 12.0659C4.51178 13.3901 4.87411 14.6875 5.55 15.8263C5.602 15.9142 5.63548 16.0119 5.64837 16.1133C5.66127 16.2146 5.65332 16.3176 5.625 16.4158L4.8615 19.0858L7.3485 18.2578C7.45412 18.2225 7.56627 18.2112 7.67679 18.2247C7.78732 18.2382 7.89346 18.2761 7.9875 18.3358C8.9704 18.9578 10.0845 19.3427 11.2418 19.46C12.3991 19.5773 13.5678 19.4239 14.6555 19.0117C15.7432 18.5996 16.7202 17.9401 17.5092 17.0854C18.2982 16.2307 18.8776 15.2042 19.2015 14.087C19.5255 12.9698 19.5851 11.7926 19.3758 10.6484C19.1664 9.50421 18.6938 8.42438 17.9953 7.49428C17.2967 6.56418 16.3914 5.80931 15.3509 5.28934C14.3104 4.76936 13.1632 4.49854 12 4.49826Z" fill="#726D6D" stroke="#726D6D" stroke-width="0.5"/>
</svg>
