<svg width="30" height="30" viewBox="0 0 30 30" fill="none" xmlns="http://www.w3.org/2000/svg">
<path d="M11.25 13.1228C11.25 12.8742 11.3488 12.6357 11.5246 12.4599C11.7004 12.2841 11.9389 12.1853 12.1875 12.1853H17.8125C18.0611 12.1853 18.2996 12.2841 18.4754 12.4599C18.6512 12.6357 18.75 12.8742 18.75 13.1228C18.75 13.3715 18.6512 13.6099 18.4754 13.7857C18.2996 13.9616 18.0611 14.0603 17.8125 14.0603H12.1875C11.9389 14.0603 11.7004 13.9616 11.5246 13.7857C11.3488 13.6099 11.25 13.3715 11.25 13.1228ZM12.1875 15.9353C11.9389 15.9353 11.7004 16.0341 11.5246 16.2099C11.3488 16.3857 11.25 16.6242 11.25 16.8728C11.25 17.1215 11.3488 17.3599 11.5246 17.5357C11.7004 17.7116 11.9389 17.8103 12.1875 17.8103H15.9375C16.1861 17.8103 16.4246 17.7116 16.6004 17.5357C16.7762 17.3599 16.875 17.1215 16.875 16.8728C16.875 16.6242 16.7762 16.3857 16.6004 16.2099C16.4246 16.0341 16.1861 15.9353 15.9375 15.9353H12.1875ZM3.75001 14.9978C3.75048 12.521 4.5683 10.1136 6.0766 8.14907C7.58489 6.1845 9.69935 4.77259 12.092 4.13236C14.4846 3.49212 17.0216 3.65936 19.3095 4.60812C21.5973 5.55689 23.5081 7.23414 24.7455 9.3797C25.9829 11.5253 26.4776 14.0192 26.1529 16.4746C25.8283 18.93 24.7024 21.2097 22.95 22.9599C21.1975 24.7102 18.9165 25.8332 16.4606 26.1548C14.0048 26.4764 11.5115 25.9785 9.36751 24.7385L4.98376 26.201C4.8218 26.255 4.64815 26.2638 4.48155 26.2265C4.31494 26.1891 4.16172 26.1069 4.0384 25.9888C3.91509 25.8707 3.82637 25.7211 3.78183 25.5563C3.73728 25.3915 3.7386 25.2176 3.78563 25.0535L5.12063 20.3828C4.22067 18.7307 3.74942 16.8792 3.75001 14.9978ZM15 5.62283C13.3447 5.62273 11.7189 6.06089 10.2879 6.89278C8.8568 7.72467 7.67151 8.92063 6.85248 10.3591C6.03344 11.7975 5.60986 13.4272 5.6248 15.0824C5.63973 16.7376 6.09265 18.3594 6.93751 19.7828C7.00251 19.8928 7.04435 20.0149 7.06048 20.1416C7.0766 20.2683 7.06665 20.397 7.03126 20.5197L6.07688 23.8572L9.18563 22.8222C9.31766 22.7781 9.45784 22.764 9.596 22.7809C9.73416 22.7978 9.86683 22.8452 9.98438 22.9197C11.213 23.6973 12.6057 24.1784 14.0522 24.325C15.4988 24.4717 16.9597 24.2798 18.3194 23.7647C19.6791 23.2495 20.9003 22.4252 21.8865 21.3568C22.8728 20.2884 23.597 19.0052 24.0019 17.6088C24.4068 16.2123 24.4814 14.7408 24.2197 13.3105C23.958 11.8803 23.3673 10.5305 22.4941 9.36785C21.6209 8.20523 20.4893 7.26164 19.1886 6.61167C17.888 5.9617 16.454 5.62317 15 5.62283Z" fill="white"/>
</svg>
