<svg width="22" height="22" viewBox="0 0 22 22" fill="none" xmlns="http://www.w3.org/2000/svg">
<path fill-rule="evenodd" clip-rule="evenodd" d="M4.42141 1.00421C5.74141 0.850208 7.87495 0.6875 11.0003 0.6875C11.9101 0.6875 12.736 0.70125 13.4822 0.724625C13.5443 0.726555 13.6058 0.736886 13.6651 0.755333C14.1903 0.918958 15.6025 1.50379 17.5783 3.43063C19.4401 5.24608 20.0827 6.57662 20.293 7.15917C20.3169 7.22639 20.3303 7.2956 20.3334 7.36679C20.3719 8.40308 20.3962 9.60804 20.3962 11C20.3962 14.7171 20.2234 17.099 20.0634 18.5093C19.9122 19.838 18.9029 20.8413 17.5792 20.9958C16.2592 21.1498 14.1252 21.3125 11.0003 21.3125C7.87541 21.3125 5.74095 21.1498 4.42141 20.9958C3.09774 20.8413 2.08849 19.838 1.93724 18.5093C1.77683 17.099 1.60449 14.7171 1.60449 11C1.60449 7.28292 1.77728 4.90096 1.93724 3.49067C2.08849 2.16196 3.09774 1.15867 4.42141 1.00421ZM5.95866 18.2188C5.74593 18.2188 5.54192 18.1342 5.3915 17.9838C5.24108 17.8334 5.15658 17.6294 5.15658 17.4167C5.15658 17.2039 5.24108 16.9999 5.3915 16.8495C5.54192 16.6991 5.74593 16.6146 5.95866 16.6146H16.042C16.2547 16.6146 16.4587 16.6991 16.6092 16.8495C16.7596 16.9999 16.8441 17.2039 16.8441 17.4167C16.8441 17.6294 16.7596 17.8334 16.6092 17.9838C16.4587 18.1342 16.2547 18.2188 16.042 18.2188H5.95866ZM5.15658 14.2083C5.15658 13.7656 5.51591 13.4062 5.95866 13.4062H16.042C16.2547 13.4062 16.4587 13.4908 16.6092 13.6412C16.7596 13.7916 16.8441 13.9956 16.8441 14.2083C16.8441 14.4211 16.7596 14.6251 16.6092 14.7755C16.4587 14.9259 16.2547 15.0104 16.042 15.0104H5.95866C5.74593 15.0104 5.54192 14.9259 5.3915 14.7755C5.24108 14.6251 5.15658 14.4211 5.15658 14.2083ZM12.5802 5.13517C13.444 4.97369 14.3227 4.90608 15.201 4.9335C15.4503 4.9413 15.6872 5.0438 15.8637 5.22013C16.0401 5.39647 16.1427 5.6334 16.1506 5.88271C16.1775 6.76101 16.1098 7.63967 15.9485 8.50346C15.7899 9.34037 14.7907 9.559 14.2449 9.01358L13.7228 8.49108L13.6147 8.58596C13.4436 8.73646 13.2756 8.8905 13.111 9.04796C12.6994 9.44212 12.1819 9.97517 11.735 10.5513C11.3986 10.9849 10.8789 11.1114 10.4554 11.0463C10.0287 10.9798 9.55566 10.6934 9.38745 10.1415C9.2197 9.59429 9.00703 8.96042 8.78429 8.44388C8.3012 8.80825 7.53808 9.53242 6.63012 10.9202C6.51367 11.0983 6.33124 11.2229 6.12297 11.2664C5.91471 11.31 5.69766 11.2691 5.51958 11.1526C5.34149 11.0362 5.21697 10.8537 5.17339 10.6455C5.12981 10.4372 5.17075 10.2202 5.2872 10.0421C6.51966 8.15925 7.58345 7.27742 8.24116 6.87317C8.93278 6.44875 9.75366 6.76042 10.0772 7.41675C10.3376 7.94475 10.5782 8.60658 10.7698 9.19371C11.1574 8.73729 11.569 8.30172 12.0027 7.88883C12.2255 7.67525 12.418 7.502 12.555 7.38146L12.5857 7.35396L12.0705 6.83879C11.5247 6.29338 11.7433 5.29421 12.5802 5.13517Z" fill="#0E1E38"/>
</svg>
