<svg width="16" height="16" viewBox="0 0 16 16" fill="none" xmlns="http://www.w3.org/2000/svg">
<path d="M2.66699 9.32986C2.54083 9.33029 2.41714 9.29492 2.31029 9.22785C2.20344 9.16078 2.11781 9.06477 2.06335 8.95097C2.0089 8.83717 1.98785 8.71025 2.00265 8.58497C2.01746 8.45968 2.06751 8.34117 2.14699 8.24319L8.74699 1.44319C8.7965 1.38605 8.86396 1.34743 8.93831 1.33368C9.01266 1.31993 9.08947 1.33187 9.15614 1.36753C9.22281 1.40319 9.27538 1.46046 9.30521 1.52993C9.33504 1.59941 9.34037 1.67696 9.32032 1.74986L8.04032 5.76319C8.00258 5.86421 7.9899 5.97287 8.00338 6.07987C8.01686 6.18686 8.05609 6.28898 8.11771 6.37748C8.17933 6.46598 8.2615 6.5382 8.35717 6.58797C8.45284 6.63773 8.55915 6.66355 8.66699 6.66319H13.3337C13.4598 6.66276 13.5835 6.69814 13.6904 6.76521C13.7972 6.83228 13.8828 6.92829 13.9373 7.04209C13.9917 7.15589 14.0128 7.2828 13.998 7.40809C13.9832 7.53338 13.9331 7.65189 13.8537 7.74986L7.25365 14.5499C7.20415 14.607 7.13668 14.6456 7.06233 14.6594C6.98798 14.6731 6.91117 14.6612 6.8445 14.6255C6.77783 14.5899 6.72526 14.5326 6.69543 14.4631C6.6656 14.3936 6.66027 14.3161 6.68032 14.2432L7.96032 10.2299C7.99806 10.1288 8.01074 10.0202 7.99726 9.91319C7.98378 9.8062 7.94455 9.70407 7.88293 9.61558C7.82131 9.52708 7.73914 9.45485 7.64347 9.40509C7.5478 9.35532 7.44149 9.32951 7.33365 9.32986H2.66699Z" stroke="#155DFC" stroke-width="1.33333" stroke-linecap="round" stroke-linejoin="round"/>
</svg>
