<svg width="22" height="22" viewBox="0 0 22 22" fill="none" xmlns="http://www.w3.org/2000/svg">
<path d="M18.333 3.66406H3.66634C2.65801 3.66406 1.84217 4.48906 1.84217 5.4974L1.83301 16.4974C1.83301 17.5057 2.65801 18.3307 3.66634 18.3307H18.333C19.3413 18.3307 20.1663 17.5057 20.1663 16.4974V5.4974C20.1663 4.48906 19.3413 3.66406 18.333 3.66406ZM17.9663 7.5599L11.4855 11.6116C11.1922 11.7949 10.8072 11.7949 10.5138 11.6116L4.03301 7.5599C3.94109 7.5083 3.8606 7.43859 3.79641 7.35498C3.73221 7.27137 3.68565 7.17561 3.65954 7.07349C3.63342 6.97136 3.6283 6.865 3.64448 6.76084C3.66067 6.65668 3.69782 6.55689 3.75368 6.46751C3.80955 6.37812 3.88297 6.301 3.96951 6.24081C4.05604 6.18062 4.15389 6.13861 4.25713 6.11734C4.36037 6.09606 4.46685 6.09595 4.57013 6.11702C4.67342 6.13808 4.77135 6.17988 4.85801 6.2399L10.9997 10.0807L17.1413 6.2399C17.228 6.17988 17.3259 6.13808 17.4292 6.11702C17.5325 6.09595 17.639 6.09606 17.7422 6.11734C17.8455 6.13861 17.9433 6.18062 18.0298 6.24081C18.1164 6.301 18.1898 6.37812 18.2457 6.46751C18.3015 6.55689 18.3387 6.65668 18.3549 6.76084C18.371 6.865 18.3659 6.97136 18.3398 7.07349C18.3137 7.17561 18.2671 7.27137 18.2029 7.35498C18.1388 7.43859 18.0583 7.5083 17.9663 7.5599Z" fill="#0E1E38"/>
</svg>
