<svg width="16" height="16" viewBox="0 0 16 16" fill="none" xmlns="http://www.w3.org/2000/svg">
<path d="M1.33398 5.99967C1.86442 5.99967 2.37313 6.21039 2.7482 6.58546C3.12327 6.96053 3.33398 7.46924 3.33398 7.99967C3.33398 8.53011 3.12327 9.03882 2.7482 9.41389C2.37313 9.78896 1.86442 9.99967 1.33398 9.99967V11.333C1.33398 11.6866 1.47446 12.0258 1.72451 12.2758C1.97456 12.5259 2.3137 12.6663 2.66732 12.6663H13.334C13.6876 12.6663 14.0267 12.5259 14.2768 12.2758C14.5268 12.0258 14.6673 11.6866 14.6673 11.333V9.99967C14.1369 9.99967 13.6282 9.78896 13.2531 9.41389C12.878 9.03882 12.6673 8.53011 12.6673 7.99967C12.6673 7.46924 12.878 6.96053 13.2531 6.58546C13.6282 6.21039 14.1369 5.99967 14.6673 5.99967V4.66634C14.6673 4.31272 14.5268 3.97358 14.2768 3.72353C14.0267 3.47348 13.6876 3.33301 13.334 3.33301H2.66732C2.3137 3.33301 1.97456 3.47348 1.72451 3.72353C1.47446 3.97358 1.33398 4.31272 1.33398 4.66634V5.99967Z" stroke="#D08700" stroke-width="1.33333" stroke-linecap="round" stroke-linejoin="round"/>
<path d="M8.66602 3.33301V4.66634" stroke="#D08700" stroke-width="1.33333" stroke-linecap="round" stroke-linejoin="round"/>
<path d="M8.66602 11.333V12.6663" stroke="#D08700" stroke-width="1.33333" stroke-linecap="round" stroke-linejoin="round"/>
<path d="M8.66602 7.33301V8.66634" stroke="#D08700" stroke-width="1.33333" stroke-linecap="round" stroke-linejoin="round"/>
</svg>
