<svg width="30" height="30" viewBox="0 0 30 30" fill="none" xmlns="http://www.w3.org/2000/svg">
<path d="M26.5625 14.9994H11.1187M5.6675 14.9994H3.4375M5.6675 14.9994C5.6675 14.2767 5.9546 13.5835 6.46563 13.0725C6.97667 12.5615 7.66979 12.2744 8.3925 12.2744C9.11521 12.2744 9.80833 12.5615 10.3194 13.0725C10.8304 13.5835 11.1175 14.2767 11.1175 14.9994C11.1175 15.7221 10.8304 16.4152 10.3194 16.9262C9.80833 17.4373 9.11521 17.7244 8.3925 17.7244C7.66979 17.7244 6.97667 17.4373 6.46563 16.9262C5.9546 16.4152 5.6675 15.7221 5.6675 14.9994ZM26.5625 23.2581H19.3775M19.3775 23.2581C19.3775 23.981 19.0897 24.6749 18.5786 25.1861C18.0674 25.6972 17.3741 25.9844 16.6512 25.9844C15.9285 25.9844 15.2354 25.696 14.7244 25.185C14.2133 24.674 13.9262 23.9808 13.9262 23.2581M19.3775 23.2581C19.3775 22.5352 19.0897 21.8426 18.5786 21.3314C18.0674 20.8203 17.3741 20.5331 16.6512 20.5331C15.9285 20.5331 15.2354 20.8202 14.7244 21.3313C14.2133 21.8423 13.9262 22.5354 13.9262 23.2581M13.9262 23.2581H3.4375M26.5625 6.74063H22.6812M17.23 6.74063H3.4375M17.23 6.74063C17.23 6.01791 17.5171 5.3248 18.0281 4.81376C18.5392 4.30272 19.2323 4.01563 19.955 4.01562C20.3129 4.01562 20.6672 4.08611 20.9978 4.22305C21.3284 4.36 21.6288 4.56072 21.8819 4.81376C22.1349 5.0668 22.3356 5.3672 22.4726 5.69781C22.6095 6.02842 22.68 6.38277 22.68 6.74063C22.68 7.09848 22.6095 7.45283 22.4726 7.78344C22.3356 8.11405 22.1349 8.41445 21.8819 8.66749C21.6288 8.92053 21.3284 9.12125 20.9978 9.2582C20.6672 9.39514 20.3129 9.46562 19.955 9.46562C19.2323 9.46562 18.5392 9.17853 18.0281 8.66749C17.5171 8.15645 17.23 7.46334 17.23 6.74063Z" stroke="#1E1E1E" stroke-width="2" stroke-miterlimit="10" stroke-linecap="round"/>
</svg>
