<svg width="16" height="16" viewBox="0 0 16 16" fill="none" xmlns="http://www.w3.org/2000/svg">
<g clip-path="url(#clip0_3783_59360)">
<path d="M8 1.33594V14.6693" stroke="#155DFC" stroke-width="1.33333" stroke-linecap="round" stroke-linejoin="round"/>
<path d="M11.3333 3.33594H6.33333C5.71449 3.33594 5.121 3.58177 4.68342 4.01936C4.24583 4.45694 4 5.05043 4 5.66927C4 6.28811 4.24583 6.8816 4.68342 7.31919C5.121 7.75677 5.71449 8.0026 6.33333 8.0026H9.66667C10.2855 8.0026 10.879 8.24844 11.3166 8.68602C11.7542 9.12361 12 9.7171 12 10.3359C12 10.9548 11.7542 11.5483 11.3166 11.9859C10.879 12.4234 10.2855 12.6693 9.66667 12.6693H4" stroke="#155DFC" stroke-width="1.33333" stroke-linecap="round" stroke-linejoin="round"/>
</g>
<defs>
<clipPath id="clip0_3783_59360">
<rect width="16" height="16" fill="white"/>
</clipPath>
</defs>
</svg>
