<svg width="20" height="20" viewBox="0 0 20 20" fill="none" xmlns="http://www.w3.org/2000/svg">
<path d="M10 13.3359H10.0083" stroke="white" stroke-width="1.33333" stroke-linecap="round" stroke-linejoin="round"/>
<path d="M10 6.66406V9.9974" stroke="white" stroke-width="1.33333" stroke-linecap="round" stroke-linejoin="round"/>
<path d="M12.76 1.66406C13.202 1.66416 13.6259 1.83981 13.9384 2.1524L17.845 6.05906C18.1576 6.37155 18.3333 6.7954 18.3334 7.2374V12.7574C18.3333 13.1994 18.1576 13.6232 17.845 13.9357L13.9384 17.8424C13.6259 18.155 13.202 18.3306 12.76 18.3307H7.24002C6.79803 18.3306 6.37417 18.155 6.06169 17.8424L2.15502 13.9357C1.84244 13.6232 1.66678 13.1994 1.66669 12.7574V7.2374C1.66678 6.7954 1.84244 6.37155 2.15502 6.05906L6.06169 2.1524C6.37417 1.83981 6.79803 1.66416 7.24002 1.66406H12.76Z" stroke="white" stroke-width="1.33333" stroke-linecap="round" stroke-linejoin="round"/>
</svg>
