<svg width="16" height="16" viewBox="0 0 16 16" fill="none" xmlns="http://www.w3.org/2000/svg">
<g clip-path="url(#clip0_1_29800)">
<path d="M8.00065 14.6693C11.6825 14.6693 14.6673 11.6845 14.6673 8.0026C14.6673 4.32071 11.6825 1.33594 8.00065 1.33594C4.31875 1.33594 1.33398 4.32071 1.33398 8.0026C1.33398 11.6845 4.31875 14.6693 8.00065 14.6693Z" stroke="white" stroke-width="1.33333" stroke-linecap="round" stroke-linejoin="round"/>
<path d="M9.33333 6H6.66667C6.29848 6 6 6.29848 6 6.66667V9.33333C6 9.70152 6.29848 10 6.66667 10H9.33333C9.70152 10 10 9.70152 10 9.33333V6.66667C10 6.29848 9.70152 6 9.33333 6Z" stroke="white" stroke-width="1.33333" stroke-linecap="round" stroke-linejoin="round"/>
</g>
<defs>
<clipPath id="clip0_1_29800">
<rect width="16" height="16" fill="white"/>
</clipPath>
</defs>
</svg>
