<svg width="16" height="16" viewBox="0 0 16 16" fill="none" xmlns="http://www.w3.org/2000/svg">
<g clip-path="url(#clip0_3783_59380)">
<path d="M10.667 10.6693L12.667 5.33594L14.667 10.6693C14.087 11.1026 13.387 11.3359 12.667 11.3359C11.947 11.3359 11.247 11.1026 10.667 10.6693Z" stroke="#9810FA" stroke-width="1.33333" stroke-linecap="round" stroke-linejoin="round"/>
<path d="M1.33301 10.6693L3.33301 5.33594L5.33301 10.6693C4.75301 11.1026 4.05301 11.3359 3.33301 11.3359C2.61301 11.3359 1.91301 11.1026 1.33301 10.6693Z" stroke="#9810FA" stroke-width="1.33333" stroke-linecap="round" stroke-linejoin="round"/>
<path d="M4.66699 14H11.3337" stroke="#9810FA" stroke-width="1.33333" stroke-linecap="round" stroke-linejoin="round"/>
<path d="M8 2V14" stroke="#9810FA" stroke-width="1.33333" stroke-linecap="round" stroke-linejoin="round"/>
<path d="M2 4.66927H3.33333C4.66667 4.66927 6.66667 4.0026 8 3.33594C9.33333 4.0026 11.3333 4.66927 12.6667 4.66927H14" stroke="#9810FA" stroke-width="1.33333" stroke-linecap="round" stroke-linejoin="round"/>
</g>
<defs>
<clipPath id="clip0_3783_59380">
<rect width="16" height="16" fill="white"/>
</clipPath>
</defs>
</svg>
