<svg width="20" height="20" viewBox="0 0 20 20" fill="none" xmlns="http://www.w3.org/2000/svg">
<path d="M16.6667 8.33073C16.6667 12.4916 12.0508 16.8249 10.5008 18.1632C10.3564 18.2718 10.1807 18.3305 10 18.3305C9.81933 18.3305 9.64356 18.2718 9.49917 18.1632C7.94917 16.8249 3.33333 12.4916 3.33333 8.33073C3.33333 6.56262 4.03571 4.86693 5.28595 3.61668C6.5362 2.36644 8.23189 1.66406 10 1.66406C11.7681 1.66406 13.4638 2.36644 14.714 3.61668C15.9643 4.86693 16.6667 6.56262 16.6667 8.33073Z" stroke="#0A0A0A" stroke-width="1.33333" stroke-linecap="round" stroke-linejoin="round"/>
<path d="M10 10.8359C11.3807 10.8359 12.5 9.71665 12.5 8.33594C12.5 6.95523 11.3807 5.83594 10 5.83594C8.61929 5.83594 7.5 6.95523 7.5 8.33594C7.5 9.71665 8.61929 10.8359 10 10.8359Z" stroke="#0A0A0A" stroke-width="1.33333" stroke-linecap="round" stroke-linejoin="round"/>
</svg>
