<svg width="30" height="30" viewBox="0 0 30 30" fill="none" xmlns="http://www.w3.org/2000/svg">
<g clip-path="url(#clip0_2803_41455)">
<path d="M5.625 12.1875C4.3818 12.1875 3.18951 12.6814 2.31044 13.5604C1.43136 14.4395 0.9375 15.6318 0.9375 16.875V19.6875H2.8125L3.75 27.1875H7.5M24.375 12.1875C25.6182 12.1875 26.8105 12.6814 27.6896 13.5604C28.5686 14.4395 29.0625 15.6318 29.0625 16.875V19.6875H27.1875L26.25 27.1875H22.5M2.8125 7.5C2.8125 8.24592 3.10882 8.96129 3.63626 9.48874C4.16371 10.0162 4.87908 10.3125 5.625 10.3125C6.37092 10.3125 7.08629 10.0162 7.61374 9.48874C8.14118 8.96129 8.4375 8.24592 8.4375 7.5C8.4375 6.75408 8.14118 6.03871 7.61374 5.51126C7.08629 4.98382 6.37092 4.6875 5.625 4.6875C4.87908 4.6875 4.16371 4.98382 3.63626 5.51126C3.10882 6.03871 2.8125 6.75408 2.8125 7.5ZM21.5625 7.5C21.5625 8.24592 21.8588 8.96129 22.3863 9.48874C22.9137 10.0162 23.6291 10.3125 24.375 10.3125C25.1209 10.3125 25.8363 10.0162 26.3637 9.48874C26.8912 8.96129 27.1875 8.24592 27.1875 7.5C27.1875 6.75408 26.8912 6.03871 26.3637 5.51126C25.8363 4.98382 25.1209 4.6875 24.375 4.6875C23.6291 4.6875 22.9137 4.98382 22.3863 5.51126C21.8588 6.03871 21.5625 6.75408 21.5625 7.5ZM11.25 4.6875C11.25 5.68206 11.6451 6.63589 12.3483 7.33915C13.0516 8.04241 14.0054 8.4375 15 8.4375C15.9946 8.4375 16.9484 8.04241 17.6517 7.33915C18.3549 6.63589 18.75 5.68206 18.75 4.6875C18.75 3.69294 18.3549 2.73911 17.6517 2.03585C16.9484 1.33259 15.9946 0.9375 15 0.9375C14.0054 0.9375 13.0516 1.33259 12.3483 2.03585C11.6451 2.73911 11.25 3.69294 11.25 4.6875ZM21.5625 16.875C21.5625 15.1345 20.8711 13.4653 19.6404 12.2346C18.4097 11.0039 16.7405 10.3125 15 10.3125C13.2595 10.3125 11.5903 11.0039 10.3596 12.2346C9.1289 13.4653 8.4375 15.1345 8.4375 16.875V19.6875H11.25L12.1875 29.0625H17.8125L18.75 19.6875H21.5625V16.875Z" stroke="white" stroke-width="1.875" stroke-linecap="round" stroke-linejoin="round"/>
</g>
<defs>
<clipPath id="clip0_2803_41455">
<rect width="30" height="30" fill="white"/>
</clipPath>
</defs>
</svg>
