<svg width="22" height="22" viewBox="0 0 22 22" fill="none" xmlns="http://www.w3.org/2000/svg">
<path d="M16.4997 2.75C17.4721 2.75 18.4048 3.13631 19.0924 3.82394C19.78 4.51157 20.1663 5.44421 20.1663 6.41667V13.75C20.1663 14.7225 19.78 15.6551 19.0924 16.3427C18.4048 17.0304 17.4721 17.4167 16.4997 17.4167H12.1693L7.80417 20.0356C7.67271 20.1145 7.52357 20.1591 7.37038 20.1655C7.2172 20.1718 7.06487 20.1396 6.92734 20.0719C6.78982 20.0041 6.67148 19.9029 6.58317 19.7776C6.49486 19.6523 6.43939 19.5068 6.42184 19.3545L6.41634 19.25V17.4167H5.49967C4.55895 17.4167 3.65422 17.0551 2.9726 16.4068C2.29098 15.7584 1.88463 14.8729 1.83759 13.9333L1.83301 13.75V6.41667C1.83301 5.44421 2.21932 4.51157 2.90695 3.82394C3.59458 3.13631 4.52721 2.75 5.49967 2.75H16.4997ZM12.833 11H7.33301C7.08989 11 6.85674 11.0966 6.68483 11.2685C6.51292 11.4404 6.41634 11.6736 6.41634 11.9167C6.41634 12.1598 6.51292 12.3929 6.68483 12.5648C6.85674 12.7368 7.08989 12.8333 7.33301 12.8333H12.833C13.0761 12.8333 13.3093 12.7368 13.4812 12.5648C13.6531 12.3929 13.7497 12.1598 13.7497 11.9167C13.7497 11.6736 13.6531 11.4404 13.4812 11.2685C13.3093 11.0966 13.0761 11 12.833 11ZM14.6663 7.33333H7.33301C7.08989 7.33333 6.85674 7.42991 6.68483 7.60182C6.51292 7.77373 6.41634 8.00689 6.41634 8.25C6.41634 8.49312 6.51292 8.72627 6.68483 8.89818C6.85674 9.07009 7.08989 9.16667 7.33301 9.16667H14.6663C14.9095 9.16667 15.1426 9.07009 15.3145 8.89818C15.4864 8.72627 15.583 8.49312 15.583 8.25C15.583 8.00689 15.4864 7.77373 15.3145 7.60182C15.1426 7.42991 14.9095 7.33333 14.6663 7.33333Z" fill="#0E1E38"/>
</svg>
