<svg width="20" height="20" viewBox="0 0 20 20" fill="none" xmlns="http://www.w3.org/2000/svg">
<path d="M14.1667 3.33594H12.5C12.0398 3.33594 11.6667 3.70903 11.6667 4.16927V15.8359C11.6667 16.2962 12.0398 16.6693 12.5 16.6693H14.1667C14.6269 16.6693 15 16.2962 15 15.8359V4.16927C15 3.70903 14.6269 3.33594 14.1667 3.33594Z" stroke="white" stroke-width="1.33333" stroke-linecap="round" stroke-linejoin="round"/>
<path d="M7.5 3.33594H5.83333C5.3731 3.33594 5 3.70903 5 4.16927V15.8359C5 16.2962 5.3731 16.6693 5.83333 16.6693H7.5C7.96024 16.6693 8.33333 16.2962 8.33333 15.8359V4.16927C8.33333 3.70903 7.96024 3.33594 7.5 3.33594Z" stroke="white" stroke-width="1.33333" stroke-linecap="round" stroke-linejoin="round"/>
</svg>
