<svg width="16" height="16" viewBox="0 0 16 16" fill="none" xmlns="http://www.w3.org/2000/svg">
<g clip-path="url(#clip0_1_30234)">
<path d="M3.26641 12.7323C0.666406 10.1323 0.666406 5.86563 3.26641 3.26562" stroke="#4A5565" stroke-width="1.33333" stroke-linecap="round" stroke-linejoin="round"/>
<path d="M5.20078 10.7995C3.66745 9.26615 3.66745 6.73281 5.20078 5.13281" stroke="#4A5565" stroke-width="1.33333" stroke-linecap="round" stroke-linejoin="round"/>
<path d="M7.99935 9.33073C8.73573 9.33073 9.33268 8.73378 9.33268 7.9974C9.33268 7.26102 8.73573 6.66406 7.99935 6.66406C7.26297 6.66406 6.66602 7.26102 6.66602 7.9974C6.66602 8.73378 7.26297 9.33073 7.99935 9.33073Z" stroke="#4A5565" stroke-width="1.33333" stroke-linecap="round" stroke-linejoin="round"/>
<path d="M10.8008 5.20312C12.3341 6.73646 12.3341 9.26979 10.8008 10.8698" stroke="#4A5565" stroke-width="1.33333" stroke-linecap="round" stroke-linejoin="round"/>
<path d="M12.7324 3.26562C15.3324 5.86563 15.3324 10.0656 12.7324 12.6656" stroke="#4A5565" stroke-width="1.33333" stroke-linecap="round" stroke-linejoin="round"/>
</g>
<defs>
<clipPath id="clip0_1_30234">
<rect width="16" height="16" fill="white"/>
</clipPath>
</defs>
</svg>
