<svg width="20" height="20" viewBox="0 0 20 20" fill="none" xmlns="http://www.w3.org/2000/svg">
<path d="M9.99992 11.6693C10.9204 11.6693 11.6666 10.9231 11.6666 10.0026C11.6666 9.08213 10.9204 8.33594 9.99992 8.33594C9.07944 8.33594 8.33325 9.08213 8.33325 10.0026C8.33325 10.9231 9.07944 11.6693 9.99992 11.6693Z" stroke="#155DFC" stroke-width="1.875"/>
<path d="M4.49912 4.90135L4.81162 4.35969C4.68892 4.28891 4.54583 4.2619 4.40578 4.2831C4.26573 4.3043 4.13704 4.37244 4.04078 4.47635L4.49912 4.90135ZM2.83328 7.78802L2.23578 7.60302C2.19399 7.73839 2.19942 7.88395 2.25121 8.01583C2.30299 8.14771 2.39804 8.25808 2.52078 8.32885L2.83328 7.78802ZM2.83162 12.2139L2.51912 11.6722C2.39635 11.7431 2.30135 11.8537 2.24971 11.9857C2.19807 12.1178 2.19287 12.2635 2.23495 12.3989L2.83162 12.2139ZM4.49828 15.1005L4.03995 15.5255C4.1362 15.6294 4.2649 15.6976 4.40495 15.7188C4.545 15.74 4.68809 15.713 4.81078 15.6422L4.49828 15.1005ZM8.33162 17.313H7.70662C7.70662 17.6047 7.90912 17.8572 8.19328 17.9222L8.33162 17.313ZM11.6658 17.3147L11.805 17.9247C11.9431 17.8931 12.0664 17.8156 12.1547 17.7048C12.2429 17.5939 12.2909 17.4564 12.2908 17.3147H11.6658ZM15.5 15.1014L15.1875 15.643C15.3101 15.7138 15.4532 15.7408 15.5933 15.7196C15.7333 15.6984 15.862 15.6303 15.9583 15.5264L15.5 15.1014ZM17.165 12.213L17.7625 12.398C17.8042 12.2626 17.7988 12.1171 17.747 11.9852C17.6952 11.8533 17.6002 11.743 17.4775 11.6722L17.165 12.213ZM17.1666 7.78719L17.4791 8.32885C17.6019 8.25792 17.6969 8.14736 17.7485 8.01531C17.8002 7.88326 17.8054 7.73758 17.7633 7.60219L17.1666 7.78719ZM15.5 4.89969L15.9583 4.47552C15.862 4.3716 15.7333 4.30346 15.5933 4.28227C15.4532 4.26107 15.3101 4.28807 15.1875 4.35885L15.5 4.89969ZM11.6666 2.68885H12.2916C12.2916 2.5473 12.2435 2.40996 12.1552 2.2993C12.067 2.18863 11.9438 2.1112 11.8058 2.07969L11.6666 2.68885ZM8.33328 2.68719L8.19412 2.07719C8.05598 2.10874 7.93267 2.18629 7.84439 2.29712C7.75612 2.40796 7.70813 2.5455 7.70828 2.68719H8.33328ZM3.43078 7.97302C3.73409 6.98712 4.25561 6.08221 4.95662 5.32552L4.03995 4.47552C3.21157 5.36966 2.59521 6.4389 2.23662 7.60385L3.43078 7.97302ZM4.04578 13.4389C3.78853 12.9938 3.5817 12.5214 3.42912 12.0305L2.23578 12.3997C2.41565 12.9797 2.65966 13.5379 2.96328 14.0639L4.04578 13.4389ZM4.95745 14.6772C4.60848 14.2996 4.3027 13.8842 4.04578 13.4389L2.96328 14.0639C3.26668 14.5899 3.6278 15.0796 4.03995 15.5255L4.95745 14.6772ZM11.5275 16.7064C10.5219 16.9352 9.47774 16.9346 8.47245 16.7047L8.19412 17.923C9.38254 18.1951 10.617 18.1959 11.8058 17.9255L11.5275 16.7064ZM16.5691 12.0297C16.2658 13.0156 15.7443 13.9205 15.0433 14.6772L15.96 15.5272C16.7883 14.633 17.4047 13.5638 17.7633 12.3989L16.5691 12.0297ZM15.9541 6.56385C16.2158 7.02108 16.4213 7.49052 16.5708 7.97219L17.7641 7.60302C17.5842 7.02297 17.3402 6.4648 17.0366 5.93885L15.9541 6.56385ZM15.0416 5.32552C15.3833 5.69469 15.6899 6.10885 15.9533 6.56385L17.0366 5.93885C16.733 5.4128 16.3707 4.92143 15.9583 4.47552L15.0416 5.32552ZM8.47162 3.29635C9.47716 3.0675 10.5213 3.06807 11.5266 3.29802L11.8058 2.07969C10.6174 1.80762 9.38208 1.80676 8.19328 2.07719L8.47162 3.29635ZM8.95745 4.22802V2.68635H7.70745V4.22802H8.95745ZM6.14578 5.12969L4.81162 4.35969L4.18662 5.44219L5.51995 6.21219L6.14578 5.12969ZM3.85412 10.9039L2.51995 11.6739L3.14495 12.7564L4.47912 11.9864L3.85412 10.9039ZM4.47912 8.01635L3.14578 7.24719L2.52078 8.33052L3.85412 9.09969L4.47912 8.01635ZM8.95828 17.3139V15.7747H7.70828V17.3139H8.95828ZM5.52078 13.7905L4.18662 14.5605L4.81162 15.6439L6.14495 14.873L5.52078 13.7905ZM15.8133 14.5605L14.4791 13.7905L13.8541 14.873L15.1875 15.643L15.8133 14.5605ZM12.2916 17.3155V15.7747H11.0416V17.3164L12.2916 17.3155ZM16.8549 7.24635L15.5208 8.01635L16.1458 9.09969L17.4791 8.32885L16.8549 7.24635ZM17.4783 11.673L16.1458 10.903L15.5208 11.9864L16.8541 12.7555L17.4783 11.673ZM12.2916 4.22802V2.68885H11.0416V4.22802H12.2916ZM15.1883 4.35969L13.8541 5.12969L14.4791 6.21302L15.8133 5.44219L15.1883 4.35969ZM11.0416 4.22802C11.0416 5.99219 12.9516 7.09552 14.4791 6.21302L13.8541 5.12969C13.6958 5.22109 13.5162 5.26922 13.3334 5.26924C13.1506 5.26926 12.971 5.22117 12.8126 5.1298C12.6543 5.03842 12.5228 4.90699 12.4313 4.7487C12.3399 4.59041 12.2917 4.41083 12.2916 4.22802H11.0416ZM15.5208 8.01635C13.9933 8.89885 13.9933 11.1039 15.5208 11.9864L16.1458 10.903C15.9874 10.8116 15.856 10.6801 15.7645 10.5217C15.6731 10.3634 15.625 10.1838 15.625 10.0009C15.625 9.8181 15.6731 9.63847 15.7645 9.48013C15.856 9.32178 15.9874 9.19028 16.1458 9.09885L15.5208 8.01635ZM14.4791 13.7905C12.9516 12.908 11.0416 14.0105 11.0416 15.7747H12.2916C12.2917 15.5919 12.3399 15.4123 12.4313 15.254C12.5228 15.0957 12.6543 14.9643 12.8126 14.8729C12.971 14.7815 13.1506 14.7334 13.3334 14.7335C13.5162 14.7335 13.6958 14.7816 13.8541 14.873L14.4791 13.7905ZM8.95828 15.7747C8.95828 14.0105 7.04828 12.908 5.52078 13.7905L6.14495 14.873C6.30327 14.7816 6.48369 14.7335 6.66651 14.7335C6.84932 14.7334 7.02892 14.7815 7.18726 14.8729C7.3456 14.9643 7.4771 15.0957 7.56856 15.254C7.66002 15.4123 7.70821 15.5919 7.70828 15.7747H8.95828ZM4.47912 11.9864C6.00662 11.1039 6.00662 8.89885 4.47912 8.01635L3.85412 9.09969C4.01246 9.19112 4.14394 9.32261 4.23536 9.48096C4.32678 9.63931 4.3749 9.81893 4.3749 10.0018C4.3749 10.1846 4.32678 10.3642 4.23536 10.5226C4.14394 10.6809 4.01246 10.8124 3.85412 10.9039L4.47912 11.9864ZM7.70828 4.22802C7.70821 4.41083 7.66002 4.59041 7.56856 4.7487C7.4771 4.90699 7.3456 5.03842 7.18726 5.1298C7.02892 5.22117 6.84932 5.26926 6.66651 5.26924C6.48369 5.26922 6.3041 5.22109 6.14578 5.12969L5.52078 6.21302C7.04828 7.09469 8.95828 5.99219 8.95828 4.22802H7.70828Z" fill="#155DFC"/>
</svg>
