<svg width="20" height="20" viewBox="0 0 20 20" fill="none" xmlns="http://www.w3.org/2000/svg">
<path d="M16.6667 10.8311C16.6667 14.9978 13.75 17.0811 10.2834 18.2894C10.1018 18.351 9.90466 18.348 9.72504 18.2811C6.25004 17.0811 3.33337 14.9978 3.33337 10.8311V4.99777C3.33337 4.77676 3.42117 4.5648 3.57745 4.40852C3.73373 4.25223 3.94569 4.16444 4.16671 4.16444C5.83337 4.16444 7.91671 3.16444 9.36671 1.89777C9.54325 1.74694 9.76784 1.66406 10 1.66406C10.2322 1.66406 10.4568 1.74694 10.6334 1.89777C12.0917 3.17277 14.1667 4.16444 15.8334 4.16444C16.0544 4.16444 16.2663 4.25223 16.4226 4.40852C16.5789 4.5648 16.6667 4.77676 16.6667 4.99777V10.8311Z" stroke="#0A0A0A" stroke-width="1.66667" stroke-linecap="round" stroke-linejoin="round"/>
</svg>
