<svg width="16" height="16" viewBox="0 0 16 16" fill="none" xmlns="http://www.w3.org/2000/svg">
<g clip-path="url(#clip0_1_28456)">
<path d="M14.6673 8.0026H13.014C12.7226 8.00198 12.4391 8.09681 12.2067 8.27258C11.9744 8.44836 11.806 8.6954 11.7273 8.97594L10.1607 14.5493C10.1506 14.5839 10.1295 14.6143 10.1007 14.6359C10.0718 14.6576 10.0367 14.6693 10.0007 14.6693C9.96459 14.6693 9.9295 14.6576 9.90065 14.6359C9.8718 14.6143 9.85075 14.5839 9.84065 14.5493L6.16065 1.45594C6.15055 1.42132 6.1295 1.39091 6.10065 1.36927C6.0718 1.34763 6.03671 1.33594 6.00065 1.33594C5.96459 1.33594 5.9295 1.34763 5.90065 1.36927C5.8718 1.39091 5.85075 1.42132 5.84065 1.45594L4.27398 7.02927C4.19563 7.30871 4.02824 7.55495 3.79723 7.73061C3.56622 7.90628 3.2842 8.00177 2.99398 8.0026H1.33398" stroke="#0A0A0A" stroke-width="1.33333" stroke-linecap="round" stroke-linejoin="round"/>
</g>
<defs>
<clipPath id="clip0_1_28456">
<rect width="16" height="16" fill="white"/>
</clipPath>
</defs>
</svg>
