<svg width="16" height="16" viewBox="0 0 16 16" fill="none" xmlns="http://www.w3.org/2000/svg">
<g clip-path="url(#clip0_3783_59444)">
<path d="M12.0003 2.66406H4.00033C3.26395 2.66406 2.66699 3.26102 2.66699 3.9974V11.9974C2.66699 12.7338 3.26395 13.3307 4.00033 13.3307H12.0003C12.7367 13.3307 13.3337 12.7338 13.3337 11.9974V3.9974C13.3337 3.26102 12.7367 2.66406 12.0003 2.66406Z" stroke="#00A63E" stroke-width="1.33333" stroke-linecap="round" stroke-linejoin="round"/>
<path d="M9.33333 6H6.66667C6.29848 6 6 6.29848 6 6.66667V9.33333C6 9.70152 6.29848 10 6.66667 10H9.33333C9.70152 10 10 9.70152 10 9.33333V6.66667C10 6.29848 9.70152 6 9.33333 6Z" stroke="#00A63E" stroke-width="1.33333" stroke-linecap="round" stroke-linejoin="round"/>
<path d="M10 1.33594V2.66927" stroke="#00A63E" stroke-width="1.33333" stroke-linecap="round" stroke-linejoin="round"/>
<path d="M10 13.3359V14.6693" stroke="#00A63E" stroke-width="1.33333" stroke-linecap="round" stroke-linejoin="round"/>
<path d="M1.33301 10H2.66634" stroke="#00A63E" stroke-width="1.33333" stroke-linecap="round" stroke-linejoin="round"/>
<path d="M1.33301 6H2.66634" stroke="#00A63E" stroke-width="1.33333" stroke-linecap="round" stroke-linejoin="round"/>
<path d="M13.333 10H14.6663" stroke="#00A63E" stroke-width="1.33333" stroke-linecap="round" stroke-linejoin="round"/>
<path d="M13.333 6H14.6663" stroke="#00A63E" stroke-width="1.33333" stroke-linecap="round" stroke-linejoin="round"/>
<path d="M6 1.33594V2.66927" stroke="#00A63E" stroke-width="1.33333" stroke-linecap="round" stroke-linejoin="round"/>
<path d="M6 13.3359V14.6693" stroke="#00A63E" stroke-width="1.33333" stroke-linecap="round" stroke-linejoin="round"/>
</g>
<defs>
<clipPath id="clip0_3783_59444">
<rect width="16" height="16" fill="white"/>
</clipPath>
</defs>
</svg>
