<svg width="48" height="48" viewBox="0 0 48 48" fill="none" xmlns="http://www.w3.org/2000/svg">
<rect width="48" height="48" rx="24" fill="#E5E7EB"/>
<path d="M24 15H17C16.4696 15 15.9609 15.2107 15.5858 15.5858C15.2107 15.9609 15 16.4696 15 17V31C15 31.5304 15.2107 32.0391 15.5858 32.4142C15.9609 32.7893 16.4696 33 17 33H31C31.5304 33 32.0391 32.7893 32.4142 32.4142C32.7893 32.0391 33 31.5304 33 31V24" stroke="#4A5565" stroke-width="2" stroke-linecap="round" stroke-linejoin="round"/>
<path d="M30.3751 14.6213C30.7729 14.2235 31.3125 14 31.8751 14C32.4377 14 32.9773 14.2235 33.3751 14.6213C33.7729 15.0191 33.9964 15.5587 33.9964 16.1213C33.9964 16.6839 33.7729 17.2235 33.3751 17.6213L24.3621 26.6353C24.1246 26.8726 23.8313 27.0462 23.5091 27.1403L20.6361 27.9803C20.55 28.0054 20.4588 28.0069 20.372 27.9847C20.2852 27.9624 20.2059 27.9173 20.1425 27.8539C20.0792 27.7905 20.034 27.7112 20.0117 27.6244C19.9895 27.5376 19.991 27.4464 20.0161 27.3603L20.8561 24.4873C20.9506 24.1654 21.1246 23.8724 21.3621 23.6353L30.3751 14.6213Z" stroke="#4A5565" stroke-width="2" stroke-linecap="round" stroke-linejoin="round"/>
</svg>
