<svg width="48" height="48" viewBox="0 0 48 48" fill="none" xmlns="http://www.w3.org/2000/svg">
<rect width="48" height="48" rx="24" fill="#FFF085"/>
<path d="M14.0615 24.3474C13.9782 24.1229 13.9782 23.8759 14.0615 23.6514C14.8732 21.6832 16.251 20.0004 18.0203 18.8163C19.7896 17.6321 21.8706 17 23.9995 17C26.1285 17 28.2095 17.6321 29.9788 18.8163C31.748 20.0004 33.1258 21.6832 33.9375 23.6514C34.0209 23.8759 34.0209 24.1229 33.9375 24.3474C33.1258 26.3155 31.748 27.9983 29.9788 29.1825C28.2095 30.3666 26.1285 30.9988 23.9995 30.9988C21.8706 30.9988 19.7896 30.3666 18.0203 29.1825C16.251 27.9983 14.8732 26.3155 14.0615 24.3474Z" stroke="#894B00" stroke-width="2" stroke-linecap="round" stroke-linejoin="round"/>
<path d="M24 27C25.6569 27 27 25.6569 27 24C27 22.3431 25.6569 21 24 21C22.3431 21 21 22.3431 21 24C21 25.6569 22.3431 27 24 27Z" stroke="#894B00" stroke-width="2" stroke-linecap="round" stroke-linejoin="round"/>
</svg>
