<svg width="24" height="24" viewBox="0 0 24 24" fill="none" xmlns="http://www.w3.org/2000/svg">
<path d="M13.2344 20.2519L21.0004 12.2999" stroke="#4A5565" stroke-width="2" stroke-linecap="round" stroke-linejoin="round"/>
<path d="M16.0005 6L7.58651 14.586C7.21157 14.9611 7.00094 15.4697 7.00094 16C7.00094 16.5303 7.21157 17.0389 7.58651 17.414C7.96156 17.7889 8.47018 17.9996 9.00051 17.9996C9.53084 17.9996 10.0395 17.7889 10.4145 17.414L18.8285 8.828C19.5784 8.07789 19.9997 7.06066 19.9997 6C19.9997 4.93934 19.5784 3.92211 18.8285 3.172C18.0784 2.42212 17.0612 2.00085 16.0005 2.00085C14.9399 2.00085 13.9226 2.42212 13.1725 3.172L4.75751 11.757C3.63219 12.8823 3 14.4086 3 16C3 17.5914 3.63219 19.1177 4.75751 20.243C5.88282 21.3683 7.40907 22.0005 9.00051 22.0005C10.5919 22.0005 12.1182 21.3683 13.2435 20.243" stroke="#4A5565" stroke-width="2" stroke-linecap="round" stroke-linejoin="round"/>
</svg>
