<svg width="24" height="24" viewBox="0 0 24 24" fill="none" xmlns="http://www.w3.org/2000/svg">
<path d="M12 2C11.2044 2 10.4413 2.31607 9.87868 2.87868C9.31607 3.44129 9 4.20435 9 5V12C9 12.7956 9.31607 13.5587 9.87868 14.1213C10.4413 14.6839 11.2044 15 12 15C12.7956 15 13.5587 14.6839 14.1213 14.1213C14.6839 13.5587 15 12.7956 15 12V5C15 4.20435 14.6839 3.44129 14.1213 2.87868C13.5587 2.31607 12.7956 2 12 2Z" stroke="#4A5565" stroke-width="2" stroke-linecap="round" stroke-linejoin="round"/>
<path d="M19 9.99988V11.9999C19 13.8564 18.2625 15.6369 16.9497 16.9496C15.637 18.2624 13.8565 18.9999 12 18.9999C10.1435 18.9999 8.36301 18.2624 7.05025 16.9496C5.7375 15.6369 5 13.8564 5 11.9999V9.99988" stroke="#4A5565" stroke-width="2" stroke-linecap="round" stroke-linejoin="round"/>
<path d="M12 18.9999V21.9999" stroke="#4A5565" stroke-width="2" stroke-linecap="round" stroke-linejoin="round"/>
</svg>
